<mxfile host="Electron" agent="Mozilla/5.0 (X11; Linux x86_64) AppleWebKit/537.36 (KHTML, like Gecko) draw.io/26.2.2 Chrome/134.0.6998.178 Electron/35.1.2 Safari/537.36" version="26.2.2">
  <diagram name="PÃ¡gina-1" id="tbhhrolYnf2YLyF_AGn1">
    <mxGraphModel dx="2040" dy="1250" grid="1" gridSize="10" guides="1" tooltips="1" connect="1" arrows="1" fold="1" page="1" pageScale="1" pageWidth="827" pageHeight="1169" math="0" shadow="0">
      <root>
        <mxCell id="0" />
        <mxCell id="1" parent="0" />
        <mxCell id="gUQwB867zqCJYkILIy9S-1" value="Day 02 - Check if two strings are anagrams" style="text;html=1;align=left;verticalAlign=middle;whiteSpace=wrap;rounded=0;fontStyle=1" parent="1" vertex="1">
          <mxGeometry x="40" y="40" width="760" height="30" as="geometry" />
        </mxCell>
        <mxCell id="gUQwB867zqCJYkILIy9S-21" style="edgeStyle=orthogonalEdgeStyle;rounded=0;orthogonalLoop=1;jettySize=auto;html=1;exitX=0.5;exitY=1;exitDx=0;exitDy=0;exitPerimeter=0;entryX=0.5;entryY=0;entryDx=0;entryDy=0;" parent="1" source="gUQwB867zqCJYkILIy9S-3" target="gUQwB867zqCJYkILIy9S-4" edge="1">
          <mxGeometry relative="1" as="geometry" />
        </mxCell>
        <mxCell id="gUQwB867zqCJYkILIy9S-3" value="Start" style="strokeWidth=2;html=1;shape=mxgraph.flowchart.terminator;whiteSpace=wrap;" parent="1" vertex="1">
          <mxGeometry x="142.25" y="80" width="100" height="60" as="geometry" />
        </mxCell>
        <mxCell id="tGsvYR1MldLi8SqffaIu-39" style="edgeStyle=orthogonalEdgeStyle;rounded=0;orthogonalLoop=1;jettySize=auto;html=1;exitX=0.5;exitY=1;exitDx=0;exitDy=0;entryX=0.5;entryY=0;entryDx=0;entryDy=0;" parent="1" source="gUQwB867zqCJYkILIy9S-4" target="tGsvYR1MldLi8SqffaIu-1" edge="1">
          <mxGeometry relative="1" as="geometry" />
        </mxCell>
        <mxCell id="gUQwB867zqCJYkILIy9S-4" value="&lt;div&gt;s, t&lt;/div&gt;&lt;div&gt;checked&lt;/div&gt;" style="shape=internalStorage;whiteSpace=wrap;html=1;dx=15;dy=15;rounded=1;arcSize=8;strokeWidth=2;" parent="1" vertex="1">
          <mxGeometry x="139.75" y="166" width="105" height="66" as="geometry" />
        </mxCell>
        <mxCell id="tGsvYR1MldLi8SqffaIu-40" style="edgeStyle=orthogonalEdgeStyle;rounded=0;orthogonalLoop=1;jettySize=auto;html=1;exitX=0.5;exitY=1;exitDx=0;exitDy=0;entryX=0.5;entryY=0;entryDx=0;entryDy=0;" parent="1" source="tGsvYR1MldLi8SqffaIu-1" target="tGsvYR1MldLi8SqffaIu-2" edge="1">
          <mxGeometry relative="1" as="geometry" />
        </mxCell>
        <mxCell id="tGsvYR1MldLi8SqffaIu-1" value="&lt;br&gt;&lt;div&gt;s&lt;/div&gt;" style="html=1;strokeWidth=2;shape=manualInput;whiteSpace=wrap;rounded=1;size=26;arcSize=11;" parent="1" vertex="1">
          <mxGeometry x="139.75" y="256" width="100" height="60" as="geometry" />
        </mxCell>
        <mxCell id="tGsvYR1MldLi8SqffaIu-2" value="&lt;br&gt;&lt;div&gt;t&lt;/div&gt;" style="html=1;strokeWidth=2;shape=manualInput;whiteSpace=wrap;rounded=1;size=26;arcSize=11;" parent="1" vertex="1">
          <mxGeometry x="139.75" y="346" width="100" height="60" as="geometry" />
        </mxCell>
        <mxCell id="tGsvYR1MldLi8SqffaIu-41" style="edgeStyle=orthogonalEdgeStyle;rounded=0;orthogonalLoop=1;jettySize=auto;html=1;exitX=0.5;exitY=1;exitDx=0;exitDy=0;entryX=0.5;entryY=0;entryDx=0;entryDy=0;" parent="1" source="tGsvYR1MldLi8SqffaIu-2" target="YjHuNr1i8aIB65mxRMRY-1" edge="1">
          <mxGeometry relative="1" as="geometry">
            <mxPoint x="189.75" y="426" as="targetPoint" />
          </mxGeometry>
        </mxCell>
        <mxCell id="YjHuNr1i8aIB65mxRMRY-1" value="checked =&lt;div&gt;s.length === t.length&lt;/div&gt;" style="rounded=1;whiteSpace=wrap;html=1;absoluteArcSize=1;arcSize=14;strokeWidth=2;" vertex="1" parent="1">
          <mxGeometry x="129.75" y="436" width="120" height="40" as="geometry" />
        </mxCell>
        <mxCell id="YjHuNr1i8aIB65mxRMRY-33" style="edgeStyle=orthogonalEdgeStyle;rounded=0;orthogonalLoop=1;jettySize=auto;html=1;exitX=1;exitY=0.5;exitDx=0;exitDy=0;exitPerimeter=0;entryX=0;entryY=0.5;entryDx=0;entryDy=0;" edge="1" parent="1" source="YjHuNr1i8aIB65mxRMRY-28" target="YjHuNr1i8aIB65mxRMRY-30">
          <mxGeometry relative="1" as="geometry" />
        </mxCell>
        <mxCell id="YjHuNr1i8aIB65mxRMRY-34" value="Yes" style="edgeLabel;html=1;align=center;verticalAlign=middle;resizable=0;points=[];" vertex="1" connectable="0" parent="YjHuNr1i8aIB65mxRMRY-33">
          <mxGeometry x="-0.2546" y="2" relative="1" as="geometry">
            <mxPoint as="offset" />
          </mxGeometry>
        </mxCell>
        <mxCell id="YjHuNr1i8aIB65mxRMRY-28" value="checked" style="strokeWidth=2;html=1;shape=mxgraph.flowchart.decision;whiteSpace=wrap;" vertex="1" parent="1">
          <mxGeometry x="139.75" y="506" width="100" height="100" as="geometry" />
        </mxCell>
        <mxCell id="YjHuNr1i8aIB65mxRMRY-29" style="edgeStyle=orthogonalEdgeStyle;rounded=0;orthogonalLoop=1;jettySize=auto;html=1;exitX=0.5;exitY=1;exitDx=0;exitDy=0;entryX=0.5;entryY=0;entryDx=0;entryDy=0;entryPerimeter=0;" edge="1" parent="1" source="YjHuNr1i8aIB65mxRMRY-1" target="YjHuNr1i8aIB65mxRMRY-28">
          <mxGeometry relative="1" as="geometry" />
        </mxCell>
        <mxCell id="YjHuNr1i8aIB65mxRMRY-32" style="edgeStyle=orthogonalEdgeStyle;rounded=0;orthogonalLoop=1;jettySize=auto;html=1;exitX=0.5;exitY=1;exitDx=0;exitDy=0;entryX=0.5;entryY=0;entryDx=0;entryDy=0;" edge="1" parent="1" source="YjHuNr1i8aIB65mxRMRY-30" target="YjHuNr1i8aIB65mxRMRY-31">
          <mxGeometry relative="1" as="geometry" />
        </mxCell>
        <mxCell id="YjHuNr1i8aIB65mxRMRY-30" value="sSorted = s.split.sort().join&lt;div&gt;tSorted = t.split.sort().join&lt;/div&gt;" style="rounded=1;whiteSpace=wrap;html=1;absoluteArcSize=1;arcSize=14;strokeWidth=2;" vertex="1" parent="1">
          <mxGeometry x="272.26" y="536" width="150" height="40" as="geometry" />
        </mxCell>
        <mxCell id="YjHuNr1i8aIB65mxRMRY-31" value="checked =&lt;div&gt;sSorted === tSorted&lt;/div&gt;" style="rounded=1;whiteSpace=wrap;html=1;absoluteArcSize=1;arcSize=14;strokeWidth=2;" vertex="1" parent="1">
          <mxGeometry x="287.26" y="606" width="120" height="40" as="geometry" />
        </mxCell>
        <mxCell id="YjHuNr1i8aIB65mxRMRY-35" value="" style="verticalLabelPosition=bottom;verticalAlign=top;html=1;shape=mxgraph.flowchart.on-page_reference;" vertex="1" parent="1">
          <mxGeometry x="169.75" y="666" width="40" height="40" as="geometry" />
        </mxCell>
        <mxCell id="YjHuNr1i8aIB65mxRMRY-36" style="edgeStyle=orthogonalEdgeStyle;rounded=0;orthogonalLoop=1;jettySize=auto;html=1;exitX=0.5;exitY=1;exitDx=0;exitDy=0;entryX=1;entryY=0.5;entryDx=0;entryDy=0;entryPerimeter=0;" edge="1" parent="1" source="YjHuNr1i8aIB65mxRMRY-31" target="YjHuNr1i8aIB65mxRMRY-35">
          <mxGeometry relative="1" as="geometry" />
        </mxCell>
        <mxCell id="YjHuNr1i8aIB65mxRMRY-37" style="edgeStyle=orthogonalEdgeStyle;rounded=0;orthogonalLoop=1;jettySize=auto;html=1;exitX=0;exitY=0.5;exitDx=0;exitDy=0;exitPerimeter=0;entryX=0;entryY=0.5;entryDx=0;entryDy=0;entryPerimeter=0;" edge="1" parent="1" source="YjHuNr1i8aIB65mxRMRY-28" target="YjHuNr1i8aIB65mxRMRY-35">
          <mxGeometry relative="1" as="geometry" />
        </mxCell>
        <mxCell id="YjHuNr1i8aIB65mxRMRY-38" value="No" style="edgeLabel;html=1;align=center;verticalAlign=middle;resizable=0;points=[];" vertex="1" connectable="0" parent="YjHuNr1i8aIB65mxRMRY-37">
          <mxGeometry x="-0.887" y="-2" relative="1" as="geometry">
            <mxPoint x="1" y="1" as="offset" />
          </mxGeometry>
        </mxCell>
        <mxCell id="YjHuNr1i8aIB65mxRMRY-45" style="edgeStyle=orthogonalEdgeStyle;rounded=0;orthogonalLoop=1;jettySize=auto;html=1;exitX=1;exitY=0.5;exitDx=0;exitDy=0;exitPerimeter=0;" edge="1" parent="1" source="YjHuNr1i8aIB65mxRMRY-40" target="YjHuNr1i8aIB65mxRMRY-43">
          <mxGeometry relative="1" as="geometry" />
        </mxCell>
        <mxCell id="YjHuNr1i8aIB65mxRMRY-40" value="checked" style="strokeWidth=2;html=1;shape=mxgraph.flowchart.decision;whiteSpace=wrap;" vertex="1" parent="1">
          <mxGeometry x="140.25" y="736" width="100" height="100" as="geometry" />
        </mxCell>
        <mxCell id="YjHuNr1i8aIB65mxRMRY-41" style="edgeStyle=orthogonalEdgeStyle;rounded=0;orthogonalLoop=1;jettySize=auto;html=1;exitX=0.5;exitY=1;exitDx=0;exitDy=0;exitPerimeter=0;entryX=0.5;entryY=0;entryDx=0;entryDy=0;entryPerimeter=0;" edge="1" parent="1" source="YjHuNr1i8aIB65mxRMRY-35" target="YjHuNr1i8aIB65mxRMRY-40">
          <mxGeometry relative="1" as="geometry" />
        </mxCell>
        <mxCell id="YjHuNr1i8aIB65mxRMRY-42" value="&quot;They aren&#39;t anagrams&quot;" style="strokeWidth=2;html=1;shape=mxgraph.flowchart.display;whiteSpace=wrap;" vertex="1" parent="1">
          <mxGeometry x="40" y="816" width="100" height="60" as="geometry" />
        </mxCell>
        <mxCell id="YjHuNr1i8aIB65mxRMRY-43" value="&quot;They are anagrams&quot;" style="strokeWidth=2;html=1;shape=mxgraph.flowchart.display;whiteSpace=wrap;" vertex="1" parent="1">
          <mxGeometry x="239.49999999999997" y="816" width="100" height="60" as="geometry" />
        </mxCell>
        <mxCell id="YjHuNr1i8aIB65mxRMRY-44" style="edgeStyle=orthogonalEdgeStyle;rounded=0;orthogonalLoop=1;jettySize=auto;html=1;exitX=0;exitY=0.5;exitDx=0;exitDy=0;exitPerimeter=0;entryX=0.5;entryY=0;entryDx=0;entryDy=0;entryPerimeter=0;" edge="1" parent="1" source="YjHuNr1i8aIB65mxRMRY-40" target="YjHuNr1i8aIB65mxRMRY-42">
          <mxGeometry relative="1" as="geometry" />
        </mxCell>
        <mxCell id="YjHuNr1i8aIB65mxRMRY-46" value="Stop" style="strokeWidth=2;html=1;shape=mxgraph.flowchart.terminator;whiteSpace=wrap;" vertex="1" parent="1">
          <mxGeometry x="139.5000000000001" y="946" width="100" height="60" as="geometry" />
        </mxCell>
        <mxCell id="YjHuNr1i8aIB65mxRMRY-47" style="edgeStyle=orthogonalEdgeStyle;rounded=0;orthogonalLoop=1;jettySize=auto;html=1;exitX=0.5;exitY=1;exitDx=0;exitDy=0;exitPerimeter=0;" edge="1" parent="1" source="YjHuNr1i8aIB65mxRMRY-48" target="YjHuNr1i8aIB65mxRMRY-46">
          <mxGeometry relative="1" as="geometry" />
        </mxCell>
        <mxCell id="YjHuNr1i8aIB65mxRMRY-48" value="" style="verticalLabelPosition=bottom;verticalAlign=top;html=1;shape=mxgraph.flowchart.on-page_reference;" vertex="1" parent="1">
          <mxGeometry x="169.5" y="881" width="40" height="40" as="geometry" />
        </mxCell>
        <mxCell id="YjHuNr1i8aIB65mxRMRY-49" style="edgeStyle=orthogonalEdgeStyle;rounded=0;orthogonalLoop=1;jettySize=auto;html=1;exitX=0.5;exitY=1;exitDx=0;exitDy=0;exitPerimeter=0;entryX=1;entryY=0.5;entryDx=0;entryDy=0;entryPerimeter=0;" edge="1" parent="1" source="YjHuNr1i8aIB65mxRMRY-43" target="YjHuNr1i8aIB65mxRMRY-48">
          <mxGeometry relative="1" as="geometry" />
        </mxCell>
        <mxCell id="YjHuNr1i8aIB65mxRMRY-50" style="edgeStyle=orthogonalEdgeStyle;rounded=0;orthogonalLoop=1;jettySize=auto;html=1;exitX=0.5;exitY=1;exitDx=0;exitDy=0;exitPerimeter=0;entryX=0;entryY=0.5;entryDx=0;entryDy=0;entryPerimeter=0;" edge="1" parent="1" source="YjHuNr1i8aIB65mxRMRY-42" target="YjHuNr1i8aIB65mxRMRY-48">
          <mxGeometry relative="1" as="geometry" />
        </mxCell>
      </root>
    </mxGraphModel>
  </diagram>
</mxfile>
